<svg width="16" height="8" viewBox="0 0 16 8" fill="none" xmlns="http://www.w3.org/2000/svg">
<path d="M1.27548 0.193912C1.20331 0.131926 1.11841 0.0834684 1.02563 0.0513033C0.932857 0.0191383 0.834018 0.00389618 0.73476 0.00644822C0.635501 0.00900026 0.537768 0.0292959 0.44714 0.0661764C0.356512 0.103057 0.274764 0.1558 0.206563 0.221394C0.138363 0.286988 0.0850452 0.36415 0.0496549 0.448472C0.0142646 0.532794 -0.00250549 0.622625 0.000302383 0.712837C0.00311025 0.803049 0.025441 0.891876 0.0660195 0.974245C0.106598 1.05661 0.16463 1.13091 0.236802 1.1929L7.04038 7.0329C7.18073 7.1535 7.36656 7.2207 7.55972 7.2207C7.75287 7.2207 7.9387 7.1535 8.07906 7.0329L14.8834 1.1929C14.9571 1.13132 15.0167 1.05704 15.0586 0.974366C15.1005 0.891695 15.1239 0.802281 15.1275 0.711318C15.131 0.620355 15.1146 0.529656 15.0793 0.444491C15.044 0.359325 14.9904 0.28139 14.9216 0.215212C14.8528 0.149034 14.7703 0.095932 14.6788 0.0589914C14.5873 0.0220509 14.4886 0.00200796 14.3884 2.62363e-05C14.2883 -0.00195549 14.1888 0.014163 14.0955 0.0474472C14.0023 0.080731 13.9173 0.130516 13.8455 0.193911L7.55972 5.5887L1.27548 0.193912Z" fill="#130E67"/>
</svg>
