<svg width="26" height="26" viewBox="0 0 26 26" fill="none" xmlns="http://www.w3.org/2000/svg">
<path d="M17.736 8.26479C17.4658 6.80952 16.8032 5.4557 15.8198 4.34952C14.8363 3.24334 13.5693 2.42682 12.1557 1.98812C10.7421 1.54942 9.23544 1.50522 7.79851 1.86028C6.36158 2.21535 5.04894 2.95618 4.00232 4.0028C2.95569 5.04943 2.21486 6.36207 1.85979 7.799C1.50473 9.23593 1.54894 10.7425 1.98763 12.1562C2.42633 13.5698 3.24285 14.8368 4.34903 15.8202C5.45521 16.8037 6.80903 17.4663 8.26431 17.7365C8.53451 19.1918 9.19712 20.5456 10.1806 21.6518C11.164 22.758 12.431 23.5745 13.8446 24.0132C15.2583 24.4519 16.7649 24.4961 18.2018 24.141C19.6388 23.786 20.9514 23.0451 21.998 21.9985C23.0446 20.9519 23.7855 19.6392 24.1405 18.2023C24.4956 16.7654 24.4514 15.2588 24.0127 13.8451C23.574 12.4315 22.7575 11.1645 21.6513 10.1811C20.5451 9.19761 19.1913 8.535 17.736 8.26479ZM10.2265 13.8132L12.1877 15.7743C11.4137 16.0896 10.5859 16.2514 9.75016 16.2507C9.74946 15.415 9.91124 14.5871 10.2265 13.8132ZM13.6542 14.9435L11.0573 12.3466C11.4249 11.8592 11.8587 11.4254 12.3461 11.0578L14.9431 13.6547C14.5755 14.1422 14.1417 14.5759 13.6542 14.9435ZM15.7738 12.1882L13.8127 10.227C14.5866 9.91173 15.4145 9.74995 16.2502 9.75065C16.2509 10.5863 16.0891 11.4142 15.7738 12.1882ZM3.25017 9.75065C3.24705 8.16636 3.82266 6.63547 4.86882 5.44571C5.91498 4.25594 7.35966 3.48922 8.93133 3.28964C10.503 3.09006 12.0935 3.47137 13.4038 4.3619C14.7141 5.25243 15.6541 6.59086 16.047 8.12565C13.9638 8.1804 11.981 9.03275 10.5079 10.5068C9.03473 11.9809 8.18365 13.9642 8.13024 16.0475C6.73444 15.6864 5.49799 14.8721 4.61481 13.7325C3.73162 12.5929 3.25165 11.1924 3.25017 9.75065ZM16.2502 22.7507C14.8091 22.7495 13.4091 22.2702 12.2696 21.388C11.1301 20.5058 10.3154 19.2705 9.95329 17.8757C12.0375 17.8222 14.0215 16.9704 15.4957 15.4962C16.9699 14.022 17.8217 12.0379 17.8752 9.95378C19.41 10.3467 20.7484 11.2867 21.6389 12.597C22.5294 13.9074 22.9108 15.4978 22.7112 17.0695C22.5116 18.6412 21.7449 20.0858 20.5551 21.132C19.3653 22.1782 17.8345 22.7538 16.2502 22.7507Z" fill="#525252"/>
</svg>
