<svg width="21" height="16" viewBox="0 0 21 16" fill="none" xmlns="http://www.w3.org/2000/svg">
<path d="M20.2415 1.68954L7.29575 15.1743C7.22061 15.2526 7.13137 15.3148 7.03315 15.3572C6.93492 15.3996 6.82964 15.4214 6.72331 15.4214C6.61698 15.4214 6.51169 15.3996 6.41347 15.3572C6.31524 15.3148 6.22601 15.2526 6.15086 15.1743L0.487114 9.27469C0.335292 9.11655 0.25 8.90206 0.25 8.67841C0.25 8.45477 0.335292 8.24028 0.487114 8.08214C0.638935 7.92399 0.844849 7.83515 1.05956 7.83515C1.27426 7.83515 1.48018 7.92399 1.632 8.08214L6.72331 13.3865L19.0966 0.496986C19.2484 0.338843 19.4543 0.25 19.669 0.25C19.8837 0.25 20.0896 0.338843 20.2415 0.496986C20.3933 0.655128 20.4786 0.869616 20.4786 1.09326C20.4786 1.31691 20.3933 1.5314 20.2415 1.68954Z" fill="white" stroke="#EEEDFC" stroke-width="0.5"/>
</svg>
